<svg width="69" height="69" viewBox="0 0 69 69" fill="none" xmlns="http://www.w3.org/2000/svg">
<g id="arrow-left">
<g id="Iconly/Bold/Arrow---Left-Circle">
<g id="Arrow---Left-Circle">
<path id="Vector" d="M34.5 5.75L35.3043 5.76105C50.8029 6.18747 63.25 18.899 63.25 34.5C63.25 50.3412 50.37 63.25 34.5 63.25C18.6587 63.25 5.75 50.3412 5.75 34.5C5.75 18.63 18.6587 5.75 34.5 5.75ZM40.1925 23C39.33 22.1375 37.9787 22.1375 37.145 23L27.1112 32.9762C26.7087 33.3787 26.4787 33.925 26.4787 34.5C26.4787 35.075 26.7087 35.6212 27.1112 36.0237L37.145 46C37.5475 46.4312 38.0937 46.6325 38.64 46.6325C39.215 46.6325 39.7612 46.4312 40.1925 46C41.0262 45.1375 41.0262 43.7862 40.1637 42.9525L31.6825 34.5L40.1637 26.0475C41.0262 25.2137 41.0262 23.8337 40.1925 23Z" fill="white" fill-opacity="0.7"/>
</g>
</g>
</g>
</svg>
