<svg width="69" height="69" viewBox="0 0 69 69" fill="none" xmlns="http://www.w3.org/2000/svg">
<g id="arrow-right">
<g id="Iconly/Bold/Arrow---Left-Circle">
<g id="Arrow---Left-Circle">
<path id="Vector" d="M34.5 63.25L33.6957 63.239C18.1971 62.8125 5.75 50.101 5.75 34.5C5.75 18.6588 18.63 5.75001 34.5 5.75001C50.3412 5.75 63.25 18.6588 63.25 34.5C63.25 50.37 50.3413 63.25 34.5 63.25ZM28.8075 46C29.67 46.8625 31.0213 46.8625 31.855 46L41.8887 36.0238C42.2912 35.6213 42.5212 35.075 42.5212 34.5C42.5212 33.925 42.2912 33.3788 41.8887 32.9763L31.855 23C31.4525 22.5688 30.9063 22.3675 30.36 22.3675C29.785 22.3675 29.2388 22.5688 28.8075 23C27.9738 23.8625 27.9737 25.2138 28.8362 26.0475L37.3175 34.5L28.8362 42.9525C27.9737 43.7863 27.9738 45.1663 28.8075 46Z" fill="white" fill-opacity="0.7"/>
</g>
</g>
</g>
</svg>
